<svg xmlns="http://www.w3.org/2000/svg" xmlns:xml="http://www.w3.org/XML/1998/namespace" xml:space="preserve" width="80" height="58"><path fill="#B3B4B6" d="M18.032 7.919c.153-.291.298-.65.298-1.089 0-.802-.298-.65-.73-.65-.43 0-.728-.074-.728.65 0 .438.07.798.22 1.018-.149 10.168-.291 20.348-.43 30.448 0 .494.43.947.938.947s.942-.453.942-.947c-.212-10.026-.356-20.208-.51-30.377M63.715 7.919c.156-.291.291-.65.291-1.089 0-.802-.291-.65-.736-.65-.354 0-.734-.074-.734.65 0 .438.086.798.242 1.018-.156 10.168-.313 20.348-.456 30.448 0 .494.456.947.948.947a.97.97 0 0 0 .948-.947c-.212-10.026-.347-20.208-.503-30.377"/><path fill="#212128" d="M78.91 52.099H1.09c-.58 0-1.09-.506-1.09-1.089v-6.833c0-.577.51-1.093 1.09-1.093h77.82c.586 0 1.09.516 1.09 1.093v6.833c0 .661-.504 1.089-1.09 1.089"/><path fill="#394044" d="M77.535 58H2.477a1.815 1.815 0 0 1-1.826-1.828V39.173c0-1.018.807-1.824 1.826-1.824h75.058c1.023 0 1.805.807 1.805 1.824v16.999c0 1.018-.781 1.828-1.805 1.828"/><path fill="#EDEDED" d="M3.928 42.439h72.201v10.324H3.928z"/><path fill="#FFF" stroke="#2A6ED1" stroke-miterlimit="10" d="M66 46.25c.976 0 1.75.79 1.75 1.742A1.75 1.75 0 0 1 66 49.75c-.962 0-1.75-.789-1.75-1.758 0-.952.788-1.742 1.75-1.742zM56 46.25a1.75 1.75 0 1 1 0 3.5c-.961 0-1.75-.789-1.75-1.758 0-.952.789-1.742 1.75-1.742zM46 46.25a1.75 1.75 0 1 1 0 3.5c-.961 0-1.75-.789-1.75-1.758 0-.952.789-1.742 1.75-1.742z"/><g fill="#2A59A9"><path d="M14.045 12.572a.63.63 0 0 1-.513-.221c-2.477-2.537-2.477-6.609 0-9.155.283-.29.722-.29 1.021 0a.72.72 0 0 1 0 1.018c-1.97 1.966-1.97 5.091 0 7.123a.716.716 0 0 1 0 1.015c-.157.149-.3.22-.508.22"/><path d="M11.125 15.473a.69.69 0 0 1-.509-.214 10.795 10.795 0 0 1 0-15.046.716.716 0 0 1 1.019 0c.301.296.301.734 0 1.015a9.25 9.25 0 0 0 0 13.012.69.69 0 0 1 0 1.019.8.8 0 0 1-.51.214M20.803 12.572c.216 0 .358-.07.508-.221 2.469-2.537 2.469-6.609 0-9.155a.7.7 0 0 0-1.016 0 .696.696 0 0 0 0 1.018c1.956 1.966 1.956 5.091 0 7.123a.693.693 0 0 0 0 1.015c.144.149.356.22.508.22"/><path d="M23.779 15.473a.65.65 0 0 0 .509-.214 10.783 10.783 0 0 0 0-15.046.72.72 0 0 0-1.019 1.015 9.25 9.25 0 0 1 0 13.012.725.725 0 0 0 .51 1.233"/></g><g fill="#2A59A9"><path d="M56.801 15.473c-.212 0-.359-.073-.516-.214a10.81 10.81 0 0 1 0-15.046c.304-.284.729-.284 1.023 0 .3.296.3.734 0 1.015a9.254 9.254 0 0 0 0 13.012c.3.296.3.726 0 1.019a.83.83 0 0 1-.507.214"/><path d="M59.717 12.572a.67.67 0 0 1-.523-.221c-2.463-2.537-2.463-6.609 0-9.155.303-.29.736-.29 1.019 0a.7.7 0 0 1 0 1.018c-1.966 1.966-1.966 5.091 0 7.123a.7.7 0 0 1 0 1.015c-.071.149-.283.22-.496.22M66.469 12.572c.215 0 .371-.07.527-.221 2.459-2.537 2.459-6.609 0-9.155-.313-.29-.74-.29-1.023 0-.313.296-.313.725 0 1.018 1.961 1.966 1.961 5.091 0 7.123a.666.666 0 0 0 0 1.015c.142.149.354.22.496.22"/><path d="M69.455 15.473c.212 0 .354-.073.51-.214a10.81 10.81 0 0 0 0-15.046.72.72 0 0 0-1.023 0c-.293.296-.293.734 0 1.015a9.24 9.24 0 0 1 0 13.012.7.7 0 0 0 0 1.019c.156.141.301.214.513.214"/></g></svg>